#!OML:ASF \\sashay\E\Suitcase\Project 1\Capture day 1\Session 1\Male1.ASF
:FULLY-SPECIFIED
:DEGREES
774
root 0.699225 16.9469 23.5167 1.97314 10.747 3.785
lowerback 8.11252 -1.1384 -5.52552
upperback -0.122306 -1.97484 1.40269
thorax -4.44784 -0.838996 4.8091
lowerneck -21.4027 -2.6716 -3.11145
upperneck 16.413 -3.03214 1.62718
head 8.71494 -1.44452 0.64969
rclavicle 2.11209e-014 -2.70347e-014
rhumerus -67.5559 -44.2611 -27.235
rradius 9.02692
rwrist 14.9946
rhand -14.6904 14.753
rfingers 7.12502
rthumb 11.4634 -14.9136
lclavicle 2.11209e-014 -2.70347e-014
lhumerus -34.9296 -0.0640265 80.143
lradius 44.5796
lwrist 2.81546
lhand -7.14922 42.057
lfingers 7.12502
lthumb 18.7273 71.1756
rfemur -23.2145 -2.75997 15.573
rtibia 21.72
rfoot -10.3997 -17.2584
rtoes 19.9726
lfemur 12.6374 -4.58942 -26.9615
ltibia 14.705
lfoot -14.3009 -11.1821
ltoes -0.345607
775
root 0.682073 16.9745 23.6477 1.91942 10.6416 2.9879
lowerback 8.39852 -1.13824 -4.74129
upperback -0.392604 -1.90344 1.69867
thorax -4.91534 -0.797427 4.68522
lowerneck -21.0021 -2.5194 -2.95474
upperneck 16.6018 -2.82665 1.33807
head 8.69851 -1.3726 0.557026
rclavicle -1.21259e-014 2.38542e-015
rhumerus -68.1918 -43.531 -26.649
rradius 9.05073
rwrist 15.1744
rhand -15.0196 14.7002
rfingers 7.12502
rthumb 11.1459 -14.9838
lclavicle -1.21259e-014 2.38542e-015
lhumerus -35.6182 0.565833 79.995
lradius 43.8232
lwrist 2.2514
lhand -6.96355 42.8009
lfingers 7.12502
lthumb 18.9059 71.9022
rfemur -22.7734 -2.50817 16.6239
rtibia 21.465
rfoot -8.96591 -16.8969
rtoes 26.743
lfemur 12.3576 -4.95836 -26.1209
ltibia 15.7458
lfoot -13.8664 -11.0168
ltoes 2.82719
776
root 0.701775 16.9992 23.86 2.18927 10.8269 1.53785
lowerback 6.92589 -1.45144 -2.91039
upperback -0.420189 -2.0852 2.1081
thorax -4.13952 -0.948164 4.04243
lowerneck -20.9809 -2.44454 -3.00959
upperneck 16.8045 -2.71062 1.33915
head 8.76269 -1.322 0.581632
rclavicle 4.09496e-014 -8.74653e-015
rhumerus -68.3285 -43.0243 -26.6234
rradius 8.93353
rwrist 15.1405
rhand -15.1943 14.4932
rfingers 7.12502
rthumb 10.9774 -15.1998
lclavicle 4.09496e-014 -8.74653e-015
lhumerus -36.2688 1.22781 79.7786
lradius 43.0923
lwrist 1.78643
lhand -7.49477 42.9951
lfingers 7.12502
lthumb 18.3949 72.1453
rfemur -22.4121 -4.20961 18.667
rtibia 21.0773
rfoot -7.11578 -14.9284
rtoes 27.4236
lfemur 11.9885 -5.43892 -24.7112
ltibia 17.0436
lfoot -14.1282 -10.5276
ltoes -3.69259
777
root 0.688794 17.0327 23.9983 2.28091 10.5106 0.701166
lowerback 6.80088 -1.38675 -2.15464
upperback -0.509329 -1.91508 2.54445
thorax -4.18662 -0.873278 4.05227
lowerneck -20.9793 -2.33027 -3.00747
upperneck 16.8938 -2.44674 0.835565
head 8.78063 -1.25461 0.44495
rclavicle -3.47873e-016 7.95139e-016
rhumerus -68.4713 -42.5958 -26.154
rradius 8.891
rwrist 15.2675
rhand -14.9793 14.4692
rfingers 7.12502
rthumb 11.1848 -15.2127
lclavicle -3.47873e-016 7.95139e-016
lhumerus -36.604 2.05002 79.8527
lradius 42.087
lwrist 1.12261
lhand -7.06466 42.9518
lfingers 7.12502
lthumb 18.8086 72.0624
rfemur -22.1063 -3.83789 19.9217
rtibia 20.553
rfoot -5.12463 -14.5583
rtoes 26.903
lfemur 11.4693 -5.8317 -23.8535
ltibia 18.3575
lfoot -13.2631 -10.5314
ltoes -1.04465
778
root 0.653243 17.0578 24.1282 2.44425 10.0441 0.022788
lowerback 8.48619 -1.35393 -1.66399
upperback -2.00049 -1.80887 2.78159
thorax -6.72868 -0.758933 4.12096
lowerneck -19.9993 -2.22463 -2.70578
upperneck 18.0758 -2.34333 0.425412
head 9.00503 -1.23927 0.274099
rclavicle -1.35919e-014 3.33958e-014
rhumerus -70.0078 -40.0104 -25.3092
rradius 9.17364
rwrist 15.4726
rhand -14.8848 13.9123
rfingers 7.12502
rthumb 11.2759 -15.7647
lclavicle -1.35919e-014 3.33958e-014
lhumerus -39.5057 2.82655 79.1875
lradius 41.3681
lwrist 0.094665
lhand -6.68816 42.8463
lfingers 7.12502
lthumb 19.1707 71.9215
rfemur -22.0369 -3.28429 21.1217
rtibia 20.1088
rfoot -4.03808 -15.4786
rtoes 20.6118
lfemur 10.8019 -6.01088 -23.0593
ltibia 19.6588
lfoot -12.4299 -10.6733
ltoes 0.554549
779
root 0.632916 17.0682 24.2509 2.61261 9.56453 -0.518446
lowerback 7.8237 -1.1467 -1.2421
upperback -1.60366 -1.47456 3.06376
thorax -5.96014 -0.624628 4.09937
lowerneck -20.5026 -2.22851 -2.90703
upperneck 17.84 -2.32285 0.665095
head 9.0177 -1.21411 0.388161
rclavicle -1.46107e-014 -7.95139e-016
rhumerus -70.1488 -40.4968 -25.0109
rradius 9.4674
rwrist 15.6776
rhand -14.998 14.0163
rfingers 7.12502
rthumb 11.1667 -15.6666
lclavicle -1.46107e-014 -7.95139e-016
lhumerus -38.7123 3.30026 79.3023
lradius 39.9987
lwrist -0.282382
lhand -6.54438 43.482
lfingers 7.12502
lthumb 19.309 72.5434
rfemur -21.851 -2.46458 21.9612
rtibia 19.6813
rfoot -3.72949 -16.5691
rtoes 19.046
lfemur 10.0996 -6.13692 -22.4682
ltibia 21.2255
lfoot -11.9957 -10.3975
ltoes -3.44834
780
root 0.616768 17.0888 24.3875 2.59451 8.9704 -1.01501
lowerback 7.38936 -1.03576 -0.868869
upperback -1.42486 -1.28077 3.32556
thorax -5.54224 -0.546133 4.12088
lowerneck -20.3235 -2.02833 -2.90955
upperneck 17.8497 -2.01495 0.495639
head 8.98217 -1.09003 0.373938
rclavicle 3.46879e-014 -3.49861e-014
rhumerus -70.2573 -40.2515 -24.9273
rradius 9.68666
rwrist 15.6018
rhand -15.156 13.7553
rfingers 7.12502
rthumb 11.0143 -15.9357
lclavicle 3.46879e-014 -3.49861e-014
lhumerus -38.9016 4.56053 78.9002
lradius 38.9438
lwrist -1.47225
lhand -5.72719 43.6595
lfingers 7.12502
lthumb 20.0946 72.6403
rfemur -21.3141 -1.89542 22.7398
rtibia 19.2213
rfoot -2.42843 -17.2554
rtoes 19.1694
lfemur 9.54939 -5.88036 -21.92
ltibia 22.8819
lfoot -11.0172 -10.3779
ltoes -1.51113
781
root 0.583438 17.1134 24.4984 2.9196 8.53181 -0.807567
lowerback 7.32394 -0.918471 -1.39349
upperback -1.4065 -1.16642 3.47568
thorax -5.48238 -0.471306 4.5618
lowerneck -20.7918 -1.92994 -2.70528
upperneck 18.2218 -1.8441 0.129108
head 9.18521 -1.03854 0.232903
rclavicle 2.73329e-015 -1.03368e-014
rhumerus -70.3294 -40.099 -24.83
rradius 10.0446
rwrist 15.235
rhand -15.3403 13.892
rfingers 7.12502
rthumb 10.8365 -15.8084
lclavicle 2.73329e-015 -1.03368e-014
lhumerus -39.088 5.26909 78.8301
lradius 37.7384
lwrist -1.60317
lhand -6.17801 43.2289
lfingers 7.12502
lthumb 19.6612 72.2546
rfemur -21.1492 -1.00364 22.6785
rtibia 18.7916
rfoot -1.97177 -17.5838
rtoes 19.3372
lfemur 8.50178 -5.96003 -22.0412
ltibia 24.5802
lfoot -9.46579 -10.4067
ltoes 2.24012
782
root 0.564777 17.1282 24.6196 2.73314 8.26533 -1.69741
lowerback 6.57124 -0.897137 -0.680196
upperback -0.548553 -1.08086 3.93714
thorax -4.17059 -0.475235 4.58934
lowerneck -22.0291 -1.79141 -2.66413
upperneck 18.2206 -1.54506 -0.214122
head 9.39608 -0.934986 0.139696
rclavicle -7.85199e-015 1.98785e-014
rhumerus -69.7432 -41.0523 -24.9863
rradius 10.2262
rwrist 15.2724
rhand -14.9611 13.3612
rfingers 7.12502
rthumb 11.2023 -16.3197
lclavicle -7.85199e-015 1.98785e-014
lhumerus -38.0988 6.73977 78.7622
lradius 36.5881
lwrist -2.55209
lhand -6.8357 43.3229
lfingers 7.12502
lthumb 19.0288 72.412
rfemur -20.4419 -0.540414 23.8014
rtibia 18.2722
rfoot -2.03839 -16.8205
rtoes 20.9571
lfemur 7.75939 -5.87748 -20.9615
ltibia 26.5346
lfoot -8.73148 -10.9765
ltoes -2.634
